<?xml version="1.0" encoding="UTF-8"?><svg xmlns="http://www.w3.org/2000/svg" viewBox="0 0 2254 1508.46"><defs><style>.cls-1{fill:#f8f7f7;}.cls-2{fill:#e3e3e3;}.cls-3,.cls-4{fill:#fff;}.cls-5{fill:#f1f1f1;}.cls-6{fill:#ce1b35;}.cls-7{fill:#c61a3b;}.cls-8{fill:#e21e28;}.cls-9{fill:#d81a2d;}.cls-4{mix-blend-mode:soft-light;}.cls-10{isolation:isolate;}</style></defs><g class="cls-10"><g id="Layer_2"><g id="_ëÎÓÈ_1"><g><path class="cls-1" d="M2254,1161.5c0,9.66-7.83,17.5-17.5,17.5h-246.31c-5.93,20.64-12.56,40.98-19.87,61h158.18c4.84,0,9.21,1.96,12.38,5.13,3.16,3.17,5.12,7.54,5.12,12.37,0,9.66-7.83,17.5-17.5,17.5h-171.76c-22.71,55.12-50.59,107.57-83.06,156.73-2.94,4.47-5.93,8.91-8.97,13.33-9.78,14.28-19.96,28.26-30.51,41.94H370.8c-26.6-34.48-50.81-70.9-72.39-109H72.5c-4.83,0-9.2-1.96-12.37-5.12-3.17-3.17-5.13-7.54-5.13-12.38,0-9.67,7.84-17.5,17.5-17.5h207.07c-7.05-13.8-13.76-27.81-20.13-42h-60.94c-4.83,0-9.2-1.96-12.37-5.12-3.17-3.17-5.13-7.54-5.13-12.38,0-9.66,7.84-17.5,17.5-17.5h46.11c-42.32-105.91-65.61-221.49-65.61-342.5,0-216.25,74.34-415.12,198.84-572.5H17.5c-4.83,0-9.2-1.96-12.37-5.13s-5.13-7.54-5.13-12.37c0-9.66,7.84-17.5,17.5-17.5H406.95c17.91-20.48,36.7-40.17,56.33-59H217.5c-4.83,0-9.2-1.96-12.37-5.13s-5.13-7.54-5.13-12.37c0-9.66,7.84-17.5,17.5-17.5H501.88C663.36,83.61,873.16,0,1102.5,0c344.8,0,645.46,188.98,804.08,469h186.92c4.84,0,9.21,1.96,12.38,5.13,3.16,3.17,5.12,7.54,5.12,12.37,0,9.66-7.83,17.5-17.5,17.5h-168.07c64.3,125.88,100.57,268.45,100.57,419.5,0,75.99-9.18,149.84-26.49,220.5h236.99c4.84,0,9.21,1.96,12.38,5.13,3.16,3.17,5.12,7.54,5.12,12.37Z"/><g><g><rect class="cls-5" x="318.78" y="613.15" width="209.71" height="451.08" rx="104.86" ry="104.86"/><path class="cls-2" d="M429.36,1487.47h-11.44V780.86c0-3.16,2.56-5.72,5.72-5.72h0c3.16,0,5.72,2.56,5.72,5.72v706.61Z"/><path class="cls-2" d="M429.36,876.63l-31.81-55.1c-1.58-2.74-5.08-3.67-7.81-2.09-2.74,1.58-3.67,5.08-2.09,7.81l31.81,55.1,9.91-5.72Z"/><path class="cls-2" d="M427.82,942.53l31.81-55.1c1.58-2.74,.64-6.23-2.09-7.81-2.74-1.58-6.23-.64-7.81,2.09l-31.81,55.1,9.91,5.72Z"/></g><g><rect class="cls-5" x="558.25" y="376.57" width="266.3" height="572.81" rx="133.15" ry="133.15"/><path class="cls-2" d="M698.66,1486.83h-14.53V589.54c0-4.01,3.25-7.26,7.26-7.26h0c4.01,0,7.26,3.25,7.26,7.26v897.29Z"/><path class="cls-2" d="M698.66,711.15l-40.39-69.96c-2.01-3.47-6.45-4.66-9.92-2.66-3.47,2.01-4.66,6.45-2.66,9.92l40.39,69.96,12.58-7.26Z"/><path class="cls-2" d="M696.72,794.84l40.39-69.96c2.01-3.47,.82-7.92-2.66-9.92-3.47-2.01-7.92-.82-9.92,2.66l-40.39,69.96,12.58,7.26Z"/></g></g><g><path class="cls-2" d="M488.32,1447.81c6.11-5.74,8.9-12.3,6.49-16.91-2.98-5.71-12.96-6.59-23.61-2.57,.54-1.39,1.05-2.82,1.51-4.29,5.68-18.13,2.43-35.28-7.24-38.31-9.43-2.95-21.5,8.6-27.36,25.98-4.85-19.91-17.32-33.95-28.01-31.43-10.06,2.37-14.99,18.57-11.76,37.14-14.74-6.51-28.97-5.99-33.5,1.86-4.69,8.13,2.62,21.32,16.54,30.94-6.6,2.21-11.14,6.26-11.76,11.33-.76,6.23,4.58,12.38,13.06,16.18-.47,1.21-.6,2.43-.32,3.6,.88,3.76,5.65,6.08,11.87,6.32v.02h.93s.05,0,.07,0h78.65v-.07c1.53-.2,2.68-.85,3.07-1.89,.26-.69,.15-1.48-.26-2.26,4.14-.4,7.26-2.04,8.28-4.77,.8-2.13,.2-4.59-1.46-7,10.75-.72,19.02-5.43,19.28-11.5,.23-5.33-5.79-10.16-14.49-12.36Z"/><path class="cls-5" d="M653.89,1414.38c11.24-10.56,16.37-22.62,11.94-31.11-5.49-10.51-23.84-12.12-43.43-4.72,1-2.55,1.93-5.18,2.78-7.89,10.44-33.34,4.48-64.88-13.32-70.46-17.35-5.43-39.53,15.82-50.31,47.77-8.93-36.62-31.85-62.43-51.5-57.81-18.5,4.35-27.57,34.15-21.62,68.3-27.11-11.97-53.27-11.02-61.6,3.42-8.63,14.95,4.81,39.21,30.42,56.89-12.14,4.07-20.49,11.51-21.63,20.84-1.4,11.46,8.43,22.77,24.02,29.75-.86,2.23-1.09,4.47-.59,6.63,1.63,6.91,10.38,11.18,21.84,11.63v.04h1.71s.09,0,.13,0h144.65v-.13c2.82-.37,4.93-1.56,5.64-3.47,.48-1.28,.27-2.72-.47-4.17,7.61-.74,13.34-3.75,15.22-8.77,1.47-3.91,.37-8.44-2.68-12.88,19.78-1.32,34.97-9.99,35.46-21.14,.42-9.81-10.65-18.68-26.65-22.74Z"/></g><g><path class="cls-5" d="M1358.95,623.51c-.86,0-1.69,.13-2.46,.37,.03-.41,.04-.82,.04-1.24,0-9.58-7.77-17.35-17.35-17.35-7.95,0-14.65,5.35-16.7,12.64-.97-.27-2-.42-3.06-.42-6.21,0-11.24,5.03-11.24,11.24s5.03,11.24,11.24,11.24c.2,0,.39,0,.59-.02v.02h38.95c4.55,0,8.24-3.69,8.24-8.24s-3.69-8.24-8.24-8.24Z"/><path class="cls-5" d="M1056.01,434.02c-4.69,0-9.08,1.3-12.83,3.54-3.88-16.79-18.92-29.31-36.89-29.31-1.58,0-3.14,.11-4.67,.3-8.37-18.66-27.11-31.65-48.88-31.65-29.58,0-53.55,23.98-53.55,53.55,0,.32,0,.63,.01,.95-3.58-1.69-7.58-2.65-11.8-2.65-15.26,0-27.63,12.37-27.63,27.63s12.37,27.63,27.63,27.63h168.61c13.8,0,24.99-11.19,24.99-24.99s-11.19-24.99-24.99-24.99Z"/><path class="cls-5" d="M799.03,1029.12c3.09,0,5.97,.85,8.44,2.33,2.55-11.04,12.44-19.28,24.27-19.28,1.04,0,2.06,.07,3.07,.2,5.51-12.27,17.83-20.82,32.16-20.82,19.46,0,35.23,15.77,35.23,35.23,0,.21,0,.41,0,.62,2.35-1.11,4.99-1.74,7.76-1.74,10.04,0,18.17,8.14,18.17,18.17s-8.14,18.17-18.17,18.17h-110.92c-9.08,0-16.44-7.36-16.44-16.44s7.36-16.44,16.44-16.44Z"/></g><g><g><path class="cls-2" d="M557.95,1258.83c-.35-4.24-2.13-7.98-3.89-10.73-.37-.59-.75-1.13-1.11-1.62-2.21-3.01-4.3-4.81-4.39-4.89l-.81-.69-.69,.81c-.07,.09-1.84,2.21-3.53,5.54-1.57,3.09-3.35,7.86-2.93,13,.42,5.13,2.95,9.55,5,12.35,1.71,2.33,3.35,3.94,4.04,4.58,.2,.19,.32,.29,.34,.31l.82,.69,.68-.82c.08-.09,1.85-2.2,3.54-5.53,1.57-3.1,3.35-7.86,2.93-13Zm-7.41,16.27c-.73-.72-1.85-1.92-3.03-3.49-2.13-2.84-4.42-6.9-4.8-11.54-.59-7.17,3.61-13.76,5.29-16.1,1.06,1.05,2.96,3.11,4.63,5.85,1.57,2.56,2.92,5.7,3.21,9.18,.58,7.18-3.61,13.77-5.3,16.1Z"/><path class="cls-5" d="M563.61,1265.04c-.96,10.5-10.18,18.24-10.18,18.24,0,0-7.67-9.28-6.71-19.78s10.19-18.24,10.19-18.24c0,0,7.67,9.28,6.71,19.78Z"/></g><g><path class="cls-2" d="M369.06,1381.92c0-.1-.18-2.41-1.12-5.41-.87-2.78-2.6-6.7-5.87-9.54-2.69-2.34-5.96-3.55-8.63-4.17-.58-.13-1.12-.24-1.63-.32-3.09-.52-5.41-.38-5.51-.37l-.89,.06,.06,.89c.01,.1,.19,2.42,1.13,5.41,.87,2.78,2.59,6.7,5.86,9.54,3.27,2.85,7.39,4.01,10.26,4.5,2.36,.39,4.27,.4,5.09,.37,.25,0,.4-.01,.42-.01l.9-.06-.07-.89Zm-15.43-5.25c-4.56-3.98-5.91-10.41-6.27-12.8,1.25,.01,3.61,.13,6.23,.8,2.44,.63,5.11,1.72,7.31,3.64,4.57,3.98,5.92,10.41,6.27,12.8-.86-.01-2.25-.07-3.88-.32-2.95-.46-6.71-1.56-9.66-4.12Z"/><path class="cls-5" d="M369.12,1367.39c5.59,6.88,4.58,16.95,4.58,16.95,0,0-10.07-1.08-15.65-7.96s-4.58-16.95-4.58-16.95c0,0,10.07,1.08,15.65,7.96Z"/></g></g></g><g><polygon class="cls-5" points="1379.59 754.36 1286.3 754.36 1286.3 913.28 1379.59 854.42 1379.59 754.36"/><polygon class="cls-2" points="1335.98 754.36 1335.98 881.93 1379.59 854.42 1379.59 754.36 1335.98 754.36"/><path class="cls-5" d="M1873.68,1002.82v428.91c-2.94,4.47-5.93,8.91-8.97,13.33-9.78,14.28-19.96,28.26-30.51,41.94h-197.8v.54h-447.33v-484.72l342.3-232.18,342.31,232.18Z"/><path class="cls-1" d="M1864.71,1036.52v408.54c-9.78,14.28-19.96,28.26-30.51,41.94h-197.8v.54h-438.38v-451.02l333.35-216.03,333.34,216.03Z"/><polygon class="cls-5" points="1531.37 718 1110.74 1003.29 1110.74 1055.94 1531.37 770.64 1952.01 1055.94 1952.01 1003.29 1531.37 718"/><polygon class="cls-2" points="1531.37 744.32 1110.74 1029.61 1110.74 1055.94 1531.37 770.64 1952.01 1055.94 1952.01 1029.61 1531.37 744.32"/><rect class="cls-2" x="1426.35" y="1122.3" width="210.05" height="365.24"/><rect class="cls-5" x="1436.63" y="1135.16" width="189.49" height="352.37" transform="translate(-1.79 2.1) rotate(-.08)"/><rect class="cls-1" x="1443.48" y="1143.73" width="175.79" height="343.81"/><path class="cls-5" d="M1603.78,1353.63l-.03-21.57-.02-14.42-.02-14.43-.17-124.35-144.68,.19,.37,273.35,144.68-.2-.13-98.57Zm-134.49,88.68l-.35-253.2,124.54-.17,.16,113.98v4.03l.02,10.69v1.03l.02,13.7,.03,21.26,.12,88.51-124.54,.17Z"/><g><rect class="cls-2" x="1591.42" y="1317.64" width="13.72" height="35.98"/><path class="cls-5" d="M1613.7,1317.64c0,8.52-6.91,15.42-15.43,15.42s-15.43-6.9-15.43-15.42,6.9-15.42,15.43-15.42,15.43,6.91,15.43,15.42Z"/><path class="cls-4" d="M1585.87,1320.34c0-8.52,6.9-15.43,15.43-15.43s-15.43,23.95-15.43,15.43Z"/></g><rect class="cls-2" x="1243.07" y="1152.22" width="141.85" height="246.63"/><rect class="cls-5" x="1252.22" y="1164.81" width="123.59" height="221.27"/><rect class="cls-2" x="1263.93" y="1185.79" width="100.16" height="179.31"/><rect class="cls-1" x="1270.96" y="1192.5" width="86.1" height="165.89"/><polygon class="cls-4" points="1357.05 1192.5 1270.96 1192.5 1270.96 1358.38 1357.05 1192.5"/><rect class="cls-2" x="1266.33" y="1253.35" width="94.84" height="20.15"/><rect class="cls-5" x="1257.09" y="1260.48" width="112.47" height="20.14"/><rect class="cls-2" x="1690.04" y="1152.22" width="141.84" height="246.63"/><rect class="cls-5" x="1699.15" y="1164.81" width="123.6" height="221.27"/><rect class="cls-2" x="1710.87" y="1185.79" width="100.16" height="179.31"/><rect class="cls-1" x="1717.91" y="1192.5" width="86.08" height="165.89"/><polygon class="cls-4" points="1803.99 1192.5 1717.91 1192.5 1717.91 1358.38 1803.99 1192.5"/><rect class="cls-2" x="1713.28" y="1253.35" width="94.83" height="20.15"/><rect class="cls-5" x="1704.04" y="1260.48" width="112.47" height="20.14"/><g><g><path class="cls-5" d="M1535.28,1045.78c14.33,2.16,24.22,15.53,22.06,29.87-2.17,14.34-15.53,24.21-29.86,22.06-14.35-2.17-24.22-15.53-22.07-29.88,2.16-14.34,15.53-24.21,29.87-22.05Z"/><path class="cls-4" d="M1532.77,1093.31c-14.33-2.16-24.2-15.53-22.06-29.86,2.17-14.35,36.4,32,22.06,29.86Z"/></g><path class="cls-2" d="M1572.42,1076.36c-2.03-21.01-19.52-37.49-41.05-37.49s-39.02,16.49-41.04,37.49h82.09Z"/></g></g><g><g><polygon class="cls-8" points="1320.46 1425.62 855.54 1425.62 864 1394.99 880.52 1335.19 890.52 1298.98 905.27 1245.6 933.7 1142.69 948.45 1089.3 1052.14 714 1123.86 714 1161.86 851.54 1227.55 1089.3 1242.3 1142.69 1270.73 1245.6 1285.48 1298.98 1312 1394.99 1320.46 1425.62"/><path class="cls-9" d="M1320.46,1425.62h-464.92l8.46-30.63,16.52-59.8c323.98-19.14,281.35-483.64,281.35-483.64l150.14,543.45,8.46,30.63Z"/><rect class="cls-8" x="760.41" y="1425.62" width="655.17" height="62.29"/><polygon class="cls-7" points="1320.46 1425.62 855.54 1425.62 864 1394.99 1312 1394.99 1320.46 1425.62"/><path class="cls-6" d="M1242.3,1142.69s-9.74,205.47-245.81,252.47l315.52-.17-69.71-252.3Z"/><polygon class="cls-3" points="1242.3 1142.69 933.7 1142.69 948.45 1089.3 1227.55 1089.3 1242.3 1142.69"/><polygon class="cls-3" points="1285.48 1298.98 890.52 1298.98 905.27 1245.6 1270.73 1245.6 1285.48 1298.98"/><path class="cls-9" d="M1264.04,1425.62s-86.84,65.56-408.5,62.29h560.05v-62.29h-151.54Z"/></g><g><rect class="cls-7" x="644.49" y="1487.1" width="877.89" height="21.36" rx="10.53" ry="10.53"/><rect class="cls-7" x="521.98" y="1487.1" width="159.81" height="21.36" rx="10.53" ry="10.53"/><rect class="cls-7" x="312.59" y="1487.1" width="166.84" height="21.36" rx="10.53" ry="10.53"/><rect class="cls-7" x="1566.63" y="1487.1" width="140.72" height="21.36" rx="10.53" ry="10.53"/><rect class="cls-7" x="1751.71" y="1487.1" width="112.08" height="21.36" rx="10.53" ry="10.53"/></g></g></g></g></g></svg>